<?xml version="1.0" standalone="no"?>
<!DOCTYPE svg PUBLIC "-//W3C//DTD SVG 1.1//EN" "http://www.w3.org/Graphics/SVG/1.1/DTD/svg11.dtd" >
<svg xmlns="http://www.w3.org/2000/svg">
<metadata></metadata>
<defs>
<font id="laconicregular" horiz-adv-x="1105" >
<font-face units-per-em="2048" ascent="1536" descent="-512" />
<missing-glyph horiz-adv-x="573" />
<glyph unicode="&#xfb01;" horiz-adv-x="1269" d="M61 819v164h164v328q0 68 47.5 116t116.5 48h737v-164h-716v-328h348v-164h-348v-819h-185v819h-164zM942 0v983h184v-983h-184z" />
<glyph unicode="&#xfb02;" horiz-adv-x="1331" d="M61 819v164h164v328q0 68 47.5 116t116.5 48h369v-164h-348v-328h348v-164h-348v-819h-185v819h-164zM1004 0v1475h184v-1475h-184z" />
<glyph unicode="&#xfb03;" horiz-adv-x="1968" d="M61 819v164h164v328q0 68 47.5 116t116.5 48h369v-164h-348v-328h514v328q0 68 47 116t116 48h738v-164h-717v-328h348v-164h-348v-819h-184v819h-514v-819h-185v819h-164zM1640 0v983h185v-983h-185z" />
<glyph unicode="&#xfb04;" horiz-adv-x="2029" d="M61 819v164h164v328q0 68 47.5 116t116.5 48h369v-164h-348v-328h514v328q0 68 47 116t116 48h369v-164h-348v-328h348v-164h-348v-819h-184v819h-514v-819h-185v819h-164zM1702 0v1477h184v-1477h-184z" />
<glyph horiz-adv-x="2048" />
<glyph horiz-adv-x="2048" />
<glyph unicode="&#xd;" horiz-adv-x="2048" />
<glyph unicode=" "  horiz-adv-x="573" />
<glyph unicode="&#x09;" horiz-adv-x="573" />
<glyph unicode="&#xa0;" horiz-adv-x="573" />
<glyph unicode="!" horiz-adv-x="544" d="M205 0v246h196v-246h-196zM205 410v901h196v-901h-196z" />
<glyph unicode="&#x22;" horiz-adv-x="819" d="M143 983v492h164v-492h-164zM512 983v492h164v-492h-164z" />
<glyph unicode="#" horiz-adv-x="1024" d="M102 492v163h164v164h-164v164h164v328h164v-328h164v328h164v-328h164v-164h-164v-164h164v-163h-164v-328h-164v328h-164v-328h-164v328h-164zM430 655h164v164h-164v-164z" />
<glyph unicode="$" horiz-adv-x="860" d="M102 922v225q0 67 48 115.5t116 48.5h82v164h164v-164h233v-164h-456v-225h305q68 0 116 -48t48 -116v-266q0 -68 -48 -116t-116 -48h-82v-164h-164v164h-213v164h438v266h-307q-68 0 -116 48t-48 116z" />
<glyph unicode="%" horiz-adv-x="1515" d="M102 901v246q0 67 48 115.5t116 48.5h246q69 0 116.5 -48t47.5 -116v-246q0 -68 -47.5 -116t-116.5 -48h-246q-68 0 -116 48.5t-48 115.5zM266 901h246v246h-246v-246zM328 0l680 1311h182l-678 -1311h-184zM840 164v244q0 69 48 116t116 47h245q69 0 116.5 -47 t47.5 -116v-244q0 -68 -47.5 -116t-116.5 -48h-245q-68 0 -116 48t-48 116zM1004 164h245v244h-245v-244z" />
<glyph unicode="&#x26;" horiz-adv-x="1433" d="M102 328v164q0 135 96 231t232 96h172v328q0 68 47.5 116t116.5 48h360q68 0 116 -48.5t48 -115.5v-328q0 -69 -48 -116.5t-116 -47.5h-327v-491h131q54 0 91.5 42.5t37.5 106.5v99h198v-84q0 -136 -96 -232t-231 -96h-131v-246h-197v246h-172q-136 0 -232 96t-96 232z M299 313q0 -64 38 -106.5t93 -42.5h172v491h-172q-54 0 -92.5 -43.5t-38.5 -107.5v-191zM799 819h295v328h-295v-328z" />
<glyph unicode="'" horiz-adv-x="450" d="M143 983v492h164v-492h-164z" />
<glyph unicode="(" horiz-adv-x="655" d="M143 -82v1229q0 135 96.5 231.5t231.5 96.5h102v-164h-102q-54 0 -91.5 -44t-37.5 -108v-1255q0 -64 37.5 -107t91.5 -43h102v-164h-102q-135 0 -231.5 96t-96.5 232z" />
<glyph unicode=")" horiz-adv-x="655" d="M82 -246h102q54 0 91.5 44t37.5 108v1255q0 64 -37.5 107t-91.5 43h-102v164h102q135 0 231.5 -96t96.5 -232v-1229q0 -135 -96.5 -231.5t-231.5 -96.5h-102v164z" />
<glyph unicode="*" horiz-adv-x="755" d="M61 1040l187 107l-187 108l66 113l186 -108v215h129v-215l187 108l65 -113l-186 -108l186 -107l-65 -112l-187 106v-215h-129v215l-186 -106z" />
<glyph unicode="+" d="M143 492v163h328v328h164v-328h328v-163h-328v-328h-164v328h-328z" />
<glyph unicode="," horiz-adv-x="552" d="M33 -410l207 656h196l-205 -656h-198z" />
<glyph unicode="-" horiz-adv-x="696" d="M102 492v163h492v-163h-492z" />
<glyph unicode="." horiz-adv-x="512" d="M158 0v246h196v-246h-196z" />
<glyph unicode="/" horiz-adv-x="983" d="M61 0l678 1311h183l-676 -1311h-185z" />
<glyph unicode="0" horiz-adv-x="1228" d="M143 328v655q0 135 96.5 231.5t231.5 96.5h287q136 0 231.5 -96.5t95.5 -231.5v-655q0 -137 -95.5 -232.5t-231.5 -95.5h-287q-135 0 -231.5 96t-96.5 232zM342 313q0 -64 37.5 -106.5t91.5 -42.5h287q55 0 93 42.5t38 106.5v682q0 64 -38.5 108t-92.5 44h-287 q-54 0 -91.5 -44t-37.5 -108v-682z" />
<glyph unicode="1" horiz-adv-x="573" d="M70 1147v164h360v-1311h-197v1147h-163z" />
<glyph unicode="2" d="M143 0v397q0 148 104.5 252.5t252.5 104.5h104q67 0 113.5 42.5t46.5 108.5v101q0 63 -37 102t-92 39h-469v164h469q136 0 232 -92t96 -226v-88q0 -147 -103.5 -239.5t-255.5 -92.5h-104q-66 0 -113 -51.5t-47 -122.5v-235h590v-164h-787z" />
<glyph unicode="3" horiz-adv-x="1024" d="M123 0v164h450q54 0 91.5 43.5t37.5 107.5v191q0 64 -37.5 106.5t-91.5 42.5h-450v164h471v328h-471v164h506q67 0 115.5 -48.5t48.5 -115.5v-410q108 -100 108 -245v-164q0 -135 -96.5 -231.5t-231.5 -96.5h-450z" />
<glyph unicode="4" horiz-adv-x="1146" d="M20 328l508 983h220l-424 -819h401v327h197v-327h163v-164h-163v-328h-197v328h-705z" />
<glyph unicode="5" d="M143 0v164h492q54 0 92.5 43.5t38.5 107.5v189q0 64 -38.5 107.5t-92.5 43.5h-492v656h738v-164h-539v-328h293q136 0 232 -96t96 -231v-164q0 -135 -96 -231.5t-232 -96.5h-492z" />
<glyph unicode="6" horiz-adv-x="1228" d="M143 328v655q0 136 96.5 232t231.5 96h541v-164h-541q-54 0 -91.5 -43t-37.5 -107v-178h416q135 0 231 -95.5t96 -231.5v-164q0 -135 -96 -231.5t-231 -96.5h-287q-135 0 -231.5 96.5t-96.5 231.5zM342 315q0 -64 37.5 -107.5t91.5 -43.5h287q54 0 91.5 43.5t37.5 107.5 v191q0 64 -37.5 106.5t-91.5 42.5h-416v-340z" />
<glyph unicode="7" d="M102 1147v164h983l-675 -1311h-224l592 1147h-676z" />
<glyph unicode="8" horiz-adv-x="1228" d="M102 328v164q0 144 109 245v410q0 67 48.5 115.5t115.5 48.5h479q68 0 116 -48.5t48 -115.5v-410q108 -100 108 -245v-164q0 -135 -96 -231.5t-231 -96.5h-369q-135 0 -231.5 96.5t-96.5 231.5zM301 315q0 -64 37.5 -107.5t91.5 -43.5h369q54 0 91.5 43.5t37.5 107.5v191 q0 64 -37.5 106.5t-91.5 42.5h-369q-54 0 -91.5 -42.5t-37.5 -106.5v-191zM410 819h409v328h-409v-328z" />
<glyph unicode="9" horiz-adv-x="1228" d="M143 819v164q0 136 96.5 232t231.5 96h287q135 0 231 -96t96 -232v-655q0 -135 -96 -231.5t-231 -96.5h-541v164h541q54 0 91.5 43.5t37.5 107.5v177h-416q-135 0 -231.5 96t-96.5 231zM342 807q0 -64 37.5 -108t91.5 -44h416v342q0 64 -37.5 107t-91.5 43h-287 q-54 0 -91.5 -43t-37.5 -107v-190z" />
<glyph unicode=":" horiz-adv-x="647" d="M225 164v246h197v-246h-197zM225 657v246h197v-246h-197z" />
<glyph unicode=";" horiz-adv-x="647" d="M61 -246l168 574h203l-178 -574h-193zM229 657v246h197v-246h-197z" />
<glyph unicode="&#x3c;" horiz-adv-x="901" d="M0 653l666 666l116 -117l-549 -549l549 -551l-116 -114z" />
<glyph unicode="=" d="M143 328v164h820v-164h-820zM143 655v164h820v-164h-820z" />
<glyph unicode="&#x3e;" horiz-adv-x="901" d="M119 102l549 551l-549 549l117 117l665 -666l-665 -665z" />
<glyph unicode="?" horiz-adv-x="901" d="M143 1147v164h492q68 0 116 -47.5t48 -116.5v-328q0 -67 -48.5 -115.5t-115.5 -48.5h-213v-245h-197v245q0 69 47.5 116.5t116.5 47.5h211v328h-457zM225 0v246h197v-246h-197z" />
<glyph unicode="@" horiz-adv-x="1638" d="M143 328v327q0 134 66 247t179 179t247 66h532q135 0 231.5 -96t96.5 -232v-471q0 -68 -48.5 -116t-115.5 -48h-676q-67 0 -115 48t-48 116v287q0 68 48 116t115 48h492v-451h184v471q0 70 -48 117t-116 47h-532q-137 0 -232.5 -95t-95.5 -233v-325q0 -138 95.5 -234 t232.5 -96h858v-164h-858q-100 0 -191.5 39t-157 105.5t-104.5 157t-39 190.5zM655 348h328v287h-328v-287z" />
<glyph unicode="A" horiz-adv-x="1146" d="M143 0v983q0 136 96.5 232t231.5 96h205q135 0 231.5 -96t96.5 -232v-983h-199v492h-463v-492h-199zM342 655h463v340q0 64 -37.5 108t-91.5 44h-205q-54 0 -91.5 -44t-37.5 -108v-340z" />
<glyph unicode="B" horiz-adv-x="1146" d="M143 4v1311h572q67 0 115.5 -48.5t48.5 -115.5v-389q75 -44 120 -120t45 -165v-145q0 -135 -96 -231.5t-231 -96.5h-574zM342 168h375q54 0 91.5 43.5t37.5 107.5v170q0 64 -37.5 108t-91.5 44h-375v-473zM342 805h338v346h-338v-346z" />
<glyph unicode="C" horiz-adv-x="1167" d="M123 492v491q0 136 96.5 232t231.5 96h356q98 0 167.5 -70t69.5 -168v-172h-198v195q0 23 -14 37t-35 14h-346q-54 0 -91.5 -44t-37.5 -108v-524q0 -129 85 -218t207 -89h430v-164h-430q-133 0 -246 66t-179 179.5t-66 246.5z" />
<glyph unicode="D" horiz-adv-x="1208" d="M143 0v1311h451q133 0 246 -66t179 -179.5t66 -246.5v-327q0 -134 -66 -247t-179 -179t-246 -66h-451zM342 164h252q122 0 207.5 89t85.5 218v369q0 129 -85.5 218t-207.5 89h-252v-983z" />
<glyph unicode="E" horiz-adv-x="1003" d="M143 164v1147h734v-164h-535v-369h539v-164h-539v-450h535v-164h-570q-67 0 -115.5 48t-48.5 116z" />
<glyph unicode="F" horiz-adv-x="983" d="M143 0v1311h734v-164h-535v-369h539v-164h-539v-614h-199z" />
<glyph unicode="G" horiz-adv-x="1187" d="M123 328v491q0 133 66 246.5t179 179.5t246 66h430v-164h-430q-122 0 -207 -89t-85 -218v-525q0 -64 37.5 -107.5t91.5 -43.5h395v491h198v-655h-593q-135 0 -231.5 96t-96.5 232z" />
<glyph unicode="H" horiz-adv-x="1146" d="M143 0v1311h199v-533h463v533h199v-1311h-199v614h-463v-614h-199z" />
<glyph unicode="I" horiz-adv-x="485" d="M143 0v1311h199v-1311h-199z" />
<glyph unicode="J" horiz-adv-x="737" d="M61 0v164h205q54 0 91.5 38t37.5 93v1016h199v-983q0 -135 -96.5 -231.5t-231.5 -96.5h-205z" />
<glyph unicode="K" horiz-adv-x="1146" d="M143 0v1311h199v-531h164l336 531h219l-338 -535q119 -17 200 -109t81 -214v-453h-199v465q0 64 -37.5 107.5t-91.5 43.5h-334v-616h-199z" />
<glyph unicode="L" horiz-adv-x="860" d="M143 0v1311h199v-1147h457v-164h-656z" />
<glyph unicode="M" horiz-adv-x="1802" d="M143 0v1311h1188q135 0 231.5 -96.5t96.5 -231.5v-983h-199v995q0 64 -37.5 108t-91.5 44h-332v-1147h-198v1147h-459v-1147h-199z" />
<glyph unicode="N" horiz-adv-x="1187" d="M143 0v1311h113q55 0 87.5 -19t53.5 -59l449 -860v938h198v-1311h-112q-55 0 -87.5 19t-53.5 59l-449 862v-940h-199z" />
<glyph unicode="O" horiz-adv-x="1187" d="M123 328v655q0 135 96.5 231.5t231.5 96.5h286q136 0 232 -96.5t96 -231.5v-655q0 -136 -95.5 -232t-232.5 -96h-286q-135 0 -231.5 96t-96.5 232zM322 313q0 -64 37.5 -106.5t91.5 -42.5h286q55 0 93 42.5t38 106.5v682q0 64 -38.5 108t-92.5 44h-286q-54 0 -91.5 -44 t-37.5 -108v-682z" />
<glyph unicode="P" horiz-adv-x="1085" d="M143 0v1311h533q136 0 232 -95.5t96 -232.5v-164q0 -135 -96 -231t-232 -96h-336v-492h-197zM340 655h336q54 0 92.5 44t38.5 108v190q0 64 -38 107t-93 43h-336v-492z" />
<glyph unicode="Q" horiz-adv-x="1187" d="M123 328v655q0 135 96.5 231.5t231.5 96.5h286q136 0 232 -96.5t96 -231.5v-655q0 -136 -95.5 -232t-232.5 -96h-47v-410h-192v410h-47q-135 0 -231.5 96t-96.5 232zM322 313q0 -64 37.5 -106.5t91.5 -42.5h286q55 0 93 42.5t38 106.5v682q0 64 -38.5 108t-92.5 44h-286 q-54 0 -91.5 -44t-37.5 -108v-682z" />
<glyph unicode="R" horiz-adv-x="1146" d="M143 0v1311h572q67 0 115.5 -48.5t48.5 -115.5v-389q75 -44 120 -120t45 -165v-473h-198v485q0 64 -37.5 108t-91.5 44h-375v-637h-199zM342 801h338v346h-338v-346z" />
<glyph unicode="S" horiz-adv-x="1064" d="M123 817v256q0 98 69.5 168t167.5 70h562v-164h-551q-22 0 -37 -14.5t-15 -34.5v-287q0 -22 15 -36.5t37 -14.5h334q98 0 167.5 -69t69.5 -167v-286q0 -98 -69.5 -168t-167.5 -70h-541v166h530q21 0 35 14t14 35v313q0 22 -14 37t-35 15h-334q-98 0 -167.5 69.5 t-69.5 167.5z" />
<glyph unicode="T" horiz-adv-x="983" d="M61 1147v164h861v-164h-330v-1147h-199v1147h-332z" />
<glyph unicode="U" horiz-adv-x="1146" d="M143 328v983h199v-998q0 -64 37.5 -106.5t91.5 -42.5h205q54 0 91.5 42.5t37.5 106.5v998h199v-983q0 -136 -96.5 -232t-231.5 -96h-205q-135 0 -231.5 96t-96.5 232z" />
<glyph unicode="V" horiz-adv-x="1146" d="M143 0v1311h199v-1147h170q122 0 207.5 91.5t85.5 223.5v832h199v-819q0 -100 -39 -191.5t-105.5 -157t-157 -104.5t-190.5 -39h-369z" />
<glyph unicode="W" horiz-adv-x="1802" d="M143 328v983h199v-996q0 -64 37.5 -107.5t91.5 -43.5h330v1147h198v-1147h332q54 0 91.5 43.5t37.5 107.5v996h199v-983q0 -135 -96.5 -231.5t-231.5 -96.5h-860q-135 0 -231.5 96.5t-96.5 231.5z" />
<glyph unicode="X" horiz-adv-x="1146" d="M143 0v463q0 72 36 134.5t95 98.5q-59 36 -95 99t-36 135v381h199v-408q0 -53 36 -89t89 -36h213q52 0 88.5 36t36.5 89v408h199v-381q0 -72 -36 -135t-96 -99q60 -36 96 -98.5t36 -134.5v-463h-199v489q0 53 -36.5 89t-88.5 36h-213q-53 0 -89 -36t-36 -89v-489h-199z " />
<glyph unicode="Y" horiz-adv-x="1064" d="M102 860v451h199v-463q0 -64 37.5 -108t91.5 -44h205q54 0 91.5 44t37.5 108v463h199v-451q0 -138 -95.5 -233t-236.5 -95v-532h-199v532q-143 0 -236.5 95t-93.5 233z" />
<glyph unicode="Z" horiz-adv-x="1269" d="M82 0l760 1147h-635v164h981l-760 -1147h637v-164h-983z" />
<glyph unicode="[" horiz-adv-x="655" d="M143 -410v1885h410v-164h-211v-1557h211v-164h-410z" />
<glyph unicode="\" horiz-adv-x="983" d="M61 1311h183l678 -1311h-185z" />
<glyph unicode="]" horiz-adv-x="655" d="M102 -246h213v1557h-213v164h410v-1885h-410v164z" />
<glyph unicode="^" horiz-adv-x="974" d="M61 819l326 492h201l325 -492h-198l-228 344l-227 -344h-199z" />
<glyph unicode="_" d="M-20 -164h1146v-164h-1146v164z" />
<glyph unicode="`" horiz-adv-x="778" d="M184 1475h174l207 -328h-174z" />
<glyph unicode="a" horiz-adv-x="1126" d="M123 164v266q0 68 48.5 116t115.5 48h510v225h-629v164h651q67 0 115.5 -48.5t48.5 -115.5v-819h-696q-67 0 -115.5 48t-48.5 116zM309 164h488v266h-488v-266z" />
<glyph unicode="b" horiz-adv-x="1126" d="M143 0v1475h185v-492h348q136 0 232 -95.5t96 -232.5v-327q0 -135 -96 -231.5t-232 -96.5h-533zM328 164h348q56 0 99.5 44t43.5 107v355q0 63 -43.5 106t-99.5 43h-348v-655z" />
<glyph unicode="c" horiz-adv-x="1044" d="M123 328v327q0 136 96.5 232t231.5 96h307q68 0 116 -47.5t48 -116.5v-164h-187v164h-284q-56 0 -99 -43t-43 -106v-355q0 -63 43 -107t99 -44h458v-164h-458q-135 0 -231.5 96.5t-96.5 231.5z" />
<glyph unicode="d" horiz-adv-x="1126" d="M123 328v327q0 136 96.5 232t231.5 96h346v492h186v-1475h-532q-135 0 -231.5 96.5t-96.5 231.5zM309 315q0 -63 43 -107t99 -44h346v655h-346q-56 0 -99 -44t-43 -107v-353z" />
<glyph unicode="e" d="M123 328v327q0 136 96.5 232t231.5 96h204q135 0 231.5 -96t96.5 -232v-225h-674v-115q0 -63 43 -107t99 -44h477v-164h-477q-135 0 -231.5 96.5t-96.5 231.5zM309 594h488v76q0 63 -43 106t-99 43h-204q-56 0 -99 -43t-43 -106v-76z" />
<glyph unicode="f" horiz-adv-x="839" d="M61 819v164h164v328q0 68 47.5 116t116.5 48h369v-164h-348v-328h348v-164h-348v-819h-185v819h-164z" />
<glyph unicode="g" horiz-adv-x="1126" d="M123 328v327q0 137 95.5 232.5t232.5 95.5h532v-1229q0 -68 -48.5 -116t-115.5 -48h-575v164h555v246h-348q-136 0 -232 96.5t-96 231.5zM307 315q0 -63 44 -107t100 -44h348v655h-348q-56 0 -100 -44t-44 -107v-353z" />
<glyph unicode="h" d="M143 0v1475h185v-492h307q135 0 231.5 -96t96.5 -232v-655h-187v668q0 63 -43 107t-98 44h-307v-819h-185z" />
<glyph unicode="i" horiz-adv-x="471" d="M143 0v983h185v-983h-185zM143 1229v246h185v-246h-185z" />
<glyph unicode="j" horiz-adv-x="471" d="M12 -246h129v1229h187v-1229q0 -68 -48 -116t-116 -48h-152v164zM143 1229v246h185v-246h-185z" />
<glyph unicode="k" d="M143 0v1475h185v-881h229l244 389h203l-256 -405q98 -34 160.5 -119.5t62.5 -192.5v-266h-187v281q0 62 -43 105.5t-98 43.5h-315v-430h-185z" />
<glyph unicode="l" horiz-adv-x="471" d="M143 0v1475h185v-1475h-185z" />
<glyph unicode="m" horiz-adv-x="1638" d="M143 0v983h1024q135 0 231.5 -96.5t96.5 -231.5v-655h-186v668q0 63 -43 107t-99 44h-256v-819h-186v819h-397v-819h-185z" />
<glyph unicode="n" d="M143 0v983h492q135 0 231.5 -96t96.5 -232v-655h-187v668q0 63 -43 107t-98 44h-307v-819h-185z" />
<glyph unicode="o" d="M123 328v327q0 136 96.5 232t231.5 96h204q135 0 231.5 -96t96.5 -232v-327q0 -135 -96.5 -231.5t-231.5 -96.5h-204q-135 0 -231.5 96.5t-96.5 231.5zM309 315q0 -63 43 -107t99 -44h204q56 0 99 44t43 107v353q0 63 -43 107t-99 44h-204q-56 0 -99 -44t-43 -107v-353z " />
<glyph unicode="p" horiz-adv-x="1126" d="M143 -410v1393h533q136 0 232 -95.5t96 -232.5v-327q0 -135 -96 -231.5t-232 -96.5h-348v-410h-185zM328 164h348q56 0 99.5 44t43.5 107v353q0 63 -43.5 107t-99.5 44h-348v-655z" />
<glyph unicode="q" horiz-adv-x="1126" d="M123 328v327q0 136 96.5 232t231.5 96h204q135 0 231.5 -96t96.5 -232v-1065h-186v410h-346q-135 0 -231.5 96.5t-96.5 231.5zM307 315q0 -63 44 -107t100 -44h346v504q0 63 -43 107t-99 44h-204q-56 0 -100 -44t-44 -107v-353z" />
<glyph unicode="r" horiz-adv-x="942" d="M143 0v983h553q69 0 116.5 -48t47.5 -116v-246h-186v246h-344v-819h-187z" />
<glyph unicode="s" horiz-adv-x="1003" d="M123 594v225q0 67 48.5 115.5t115.5 48.5h579v-164h-557v-225h408q67 0 115.5 -48t48.5 -116v-266q0 -68 -48.5 -116t-115.5 -48h-561v164h538v266h-407q-67 0 -115.5 48t-48.5 116z" />
<glyph unicode="t" horiz-adv-x="839" d="M61 819v164h164v328h185v-328h348v-164h-348v-655h348v-164h-369q-69 0 -116.5 48t-47.5 116v655h-164z" />
<glyph unicode="u" d="M143 328v655h187v-668q0 -63 43 -107t98 -44h164q55 0 98 44t43 107v668h187v-655q0 -136 -96.5 -232t-231.5 -96h-164q-135 0 -231.5 96t-96.5 232z" />
<glyph unicode="v" d="M143 0v983h185v-819h307q55 0 98 44t43 107v668h187v-655q0 -136 -96.5 -232t-231.5 -96h-492z" />
<glyph unicode="w" horiz-adv-x="1638" d="M143 328v655h197v-668q0 -64 38.5 -107.5t92.5 -43.5h250v819h197v-819h249q54 0 92.5 43.5t38.5 107.5v668h197v-655q0 -135 -96 -231.5t-232 -96.5h-696q-136 0 -232 96.5t-96 231.5z" />
<glyph unicode="x" d="M143 0v285q0 72 36 134.5t95 98.5q-59 36 -95 99t-36 135v231h199v-258q0 -53 36 -89t89 -36h172q53 0 89 36t36 89v258h199v-231q0 -72 -36 -135t-96 -99q60 -36 96 -98.5t36 -134.5v-285h-199v311q0 53 -36 89t-89 36h-172q-53 0 -89 -36t-36 -89v-311h-199z" />
<glyph unicode="y" d="M143 328v655h185v-668q0 -63 43.5 -107t99.5 -44h305v819h187v-1229q0 -68 -48.5 -116t-115.5 -48h-152v164h129v246h-305q-136 0 -232 96.5t-96 231.5z" />
<glyph unicode="z" horiz-adv-x="1044" d="M82 0l543 819h-478v164h816l-543 -819h479v-164h-817z" />
<glyph unicode="{" horiz-adv-x="593" d="M0 532l162 162v453q0 135 97.5 231.5t232.5 96.5v-164q-55 0 -94.5 -44t-39.5 -108v-477l-149 -150l149 -151v-477q0 -62 39.5 -106t94.5 -44v-164q-136 0 -233 96t-97 232v453z" />
<glyph unicode="|" horiz-adv-x="614" d="M225 -410v1885h164v-1885h-164z" />
<glyph unicode="}" horiz-adv-x="593" d="M102 -246q55 0 94.5 44t39.5 106v477l149 151l-149 150v477q0 64 -39.5 108t-94.5 44v164q135 0 232.5 -96.5t97.5 -231.5v-453l162 -162l-162 -161v-453q0 -136 -97 -232t-233 -96v164z" />
<glyph unicode="~" horiz-adv-x="1024" d="M102 492v163h328q0 67 48 115.5t116 48.5h328v-164h-328q0 -69 -48 -116t-116 -47h-328z" />
<glyph unicode="&#xa1;" horiz-adv-x="544" d="M143 -328v901h197v-901h-197zM143 737v246h197v-246h-197z" />
<glyph unicode="&#xa2;" horiz-adv-x="860" d="M102 492v163q0 135 95.5 230.5t230.5 97.5v164h164v-164h166v-164h-328q-56 0 -99.5 -44t-43.5 -107v-191q0 -63 43.5 -106t99.5 -43h328v-164h-166v-164h-164v164q-135 0 -230.5 96t-95.5 232z" />
<glyph unicode="&#xa3;" horiz-adv-x="942" d="M102 328v164h35q54 0 91.5 42.5t37.5 106.5v96h-164v164h166v82q0 135 96 231.5t232 96.5h164v-164h-164q-56 0 -99.5 -44.5t-43.5 -107.5v-94h305v-164h-307v-82q0 -93 -43 -163h432v-164h-738z" />
<glyph unicode="&#xa4;" horiz-adv-x="1126" d="M102 338l148 147v385l-148 148l117 115l148 -150h393l149 150l115 -115l-147 -150v-383l147 -147l-115 -117l-147 150h-397l-146 -150zM401 522h324v309h-324v-309z" />
<glyph unicode="&#xa5;" horiz-adv-x="1146" d="M61 1311h203l309 -467l310 467h202l-325 -492h194v-164h-278v-163h278v-164h-278v-328h-193v328h-276v164h276v163h-276v164h180z" />
<glyph unicode="&#xa6;" horiz-adv-x="450" d="M143 328h164v-738h-164v738zM143 573v738h164v-738h-164z" />
<glyph unicode="&#xa7;" horiz-adv-x="942" d="M143 0h457v328h-293q-67 0 -115.5 48t-48.5 116v819q0 67 48.5 115.5t115.5 48.5h492v-164h-459v-328h295q67 0 115.5 -48.5t48.5 -115.5v-819q0 -68 -48.5 -116t-115.5 -48h-492v164zM340 492h260v327h-260v-327z" />
<glyph unicode="&#xa8;" horiz-adv-x="778" d="M152 1163v148h147v-148h-147zM479 1163v148h148v-148h-148z" />
<glyph unicode="&#xa9;" horiz-adv-x="1556" d="M143 492v327q0 134 66 247t179 179t247 66h287q134 0 247 -66t178.5 -179t65.5 -247v-327q0 -100 -39 -190.5t-104.5 -157t-156.5 -105.5t-191 -39h-287q-100 0 -191.5 39t-157 105.5t-104.5 157t-39 190.5zM307 471q0 -129 95.5 -218t230.5 -89h291q135 0 230 89t95 218 v371q0 128 -94.5 216.5t-230.5 88.5h-291q-136 0 -231 -88.5t-95 -216.5v-371zM492 492v327q0 68 47 116t116 48h389v-158h-382v-340h382v-157h-389q-67 0 -115 48t-48 116z" />
<glyph unicode="&#xaa;" horiz-adv-x="778" d="M82 928v182q0 44 32 76.5t76 32.5h375v139h-452v117h467q47 0 81.5 -35t34.5 -82v-539h-506q-44 0 -76 32.5t-32 76.5zM215 936h350v166h-350v-166z" />
<glyph unicode="&#xab;" horiz-adv-x="1249" d="M0 606l492 492l116 -115l-375 -377l375 -375l-116 -116zM539 606l491 492l117 -115l-375 -377l375 -375l-117 -116z" />
<glyph unicode="&#xac;" d="M143 492v163h820v-409h-164v246h-656z" />
<glyph unicode="&#xad;" horiz-adv-x="696" d="M102 492v163h492v-163h-492z" />
<glyph unicode="&#xae;" horiz-adv-x="1126" d="M115 1090q0 186 131 317t317 131t318.5 -131t132.5 -317q0 -187 -132.5 -319t-318.5 -132t-317 132t-131 319zM322 825h108v181h297v-181h111v181q0 39 -25.5 68.5t-62.5 37.5v145q0 45 -32 77t-77 32h-319v-541zM430 1114v143h207v-143h-207z" />
<glyph unicode="&#xaf;" horiz-adv-x="778" d="M143 1163v148h492v-148h-492z" />
<glyph unicode="&#xb0;" horiz-adv-x="696" d="M61 901v246q0 67 48.5 115.5t115.5 48.5h246q69 0 116.5 -48t47.5 -116v-246q0 -68 -47.5 -116t-116.5 -48h-246q-67 0 -115.5 48.5t-48.5 115.5zM225 901h246v246h-246v-246z" />
<glyph unicode="&#xb1;" d="M143 0v164h820v-164h-820zM143 655v164h328v328h164v-328h328v-164h-328v-327h-164v327h-328z" />
<glyph unicode="&#xb2;" horiz-adv-x="901" d="M102 492v327q0 67 48 115.5t116 48.5h359v176h-490v152h500q67 0 115.5 -48.5t48.5 -115.5v-152q0 -67 -48.5 -115.5t-115.5 -48.5h-359v-188h492v-151h-666z" />
<glyph unicode="&#xb3;" horiz-adv-x="901" d="M102 492v151h521v182h-521v152h435v182h-435v152h609v-346q39 -21 63.5 -60.5t24.5 -85.5v-164q0 -67 -48 -115t-116 -48h-533z" />
<glyph unicode="&#xb4;" horiz-adv-x="778" d="M213 1147l207 328h174l-207 -328h-174z" />
<glyph unicode="&#xb6;" horiz-adv-x="1024" d="M102 985v164q0 67 48 115.5t116 48.5h615v-983h-152v819h-188v-819h-152v491h-123q-68 0 -116 48.5t-48 115.5z" />
<glyph unicode="&#xb7;" horiz-adv-x="573" d="M184 512v246h205v-246h-205z" />
<glyph unicode="&#xb8;" horiz-adv-x="778" d="M184 -262h181v282h147v-266q0 -68 -48 -116t-116 -48h-164v148z" />
<glyph unicode="&#xb9;" horiz-adv-x="491" d="M41 1159v152h348v-819h-174v667h-174z" />
<glyph unicode="&#xba;" horiz-adv-x="798" d="M102 1038v217q0 92 64.5 156t155.5 64h155q91 0 155 -64t64 -156v-217q0 -91 -64 -155t-155 -64h-155q-91 0 -155.5 64t-64.5 155zM233 1038q0 -42 29.5 -72t67.5 -30h139q37 0 65.5 30t28.5 72v217q0 43 -28 73t-66 30h-139q-38 0 -67.5 -30t-29.5 -73v-217z" />
<glyph unicode="&#xbb;" horiz-adv-x="1249" d="M102 231l375 375l-375 377l117 115l492 -492l-492 -491zM641 231l375 375l-375 377l117 115l491 -492l-491 -491z" />
<glyph unicode="&#xbc;" horiz-adv-x="1699" d="M41 1159v152h352v-819h-176v667h-176zM301 0l680 1311h182l-678 -1311h-184zM817 164l338 655h191l-263 -504h228v217h176v-217h151v-151h-151v-164h-176v164h-494z" />
<glyph unicode="&#xbd;" horiz-adv-x="1822" d="M41 1159v152h350v-819h-174v667h-176zM301 0l678 1311h184l-680 -1311h-182zM1022 0v328q0 68 48 116t116 48h360v176h-491v151h501q68 0 116 -48.5t48 -115.5v-151q0 -68 -48 -116t-116 -48h-360v-188h494v-152h-668z" />
<glyph unicode="&#xbe;" horiz-adv-x="2027" d="M102 492v151h521v182h-521v152h435v182h-435v152h609v-346q39 -21 63.5 -60.5t24.5 -85.5v-164q0 -67 -48 -115t-116 -48h-533zM631 0l680 1311h182l-678 -1311h-184zM1147 164l338 655h190l-262 -504h225v217h177v-217h151v-151h-151v-164h-177v164h-491z" />
<glyph unicode="&#xbf;" horiz-adv-x="901" d="M102 164q0 68 48 116t116 48h213v245h197v-245q0 -69 -47.5 -116.5t-116.5 -47.5h-211v-328h457v-164h-492q-68 0 -116 47.5t-48 116.5v328zM479 737v246h197v-246h-197z" />
<glyph unicode="&#xc0;" horiz-adv-x="1146" d="M143 0v983q0 136 96.5 232t231.5 96h205q135 0 231.5 -96t96.5 -232v-983h-199v492h-463v-492h-199zM289 1802h174l207 -327h-174zM342 655h463v340q0 64 -37.5 108t-91.5 44h-205q-54 0 -91.5 -44t-37.5 -108v-340z" />
<glyph unicode="&#xc1;" horiz-adv-x="1146" d="M143 0v983q0 136 96.5 232t231.5 96h205q135 0 231.5 -96t96.5 -232v-983h-199v492h-463v-492h-199zM342 655h463v340q0 64 -37.5 108t-91.5 44h-205q-54 0 -91.5 -44t-37.5 -108v-340zM473 1475l207 327h174l-207 -327h-174z" />
<glyph unicode="&#xc2;" horiz-adv-x="1146" d="M143 0v983q0 136 96.5 232t231.5 96h205q135 0 231.5 -96t96.5 -232v-983h-199v492h-463v-492h-199zM291 1475l207 327h153l207 -327h-166l-119 188l-118 -188h-164zM342 655h463v340q0 64 -37.5 108t-91.5 44h-205q-54 0 -91.5 -44t-37.5 -108v-340z" />
<glyph unicode="&#xc3;" horiz-adv-x="1146" d="M143 0v983q0 136 96.5 232t231.5 96h205q135 0 231.5 -96t96.5 -232v-983h-199v492h-463v-492h-199zM225 1638v148h252q61 0 104.5 -43t43.5 -105v-16h256v-147h-256q-60 0 -104 43t-44 104v16h-252zM342 655h463v340q0 64 -37.5 108t-91.5 44h-205q-54 0 -91.5 -44 t-37.5 -108v-340z" />
<glyph unicode="&#xc4;" horiz-adv-x="1146" d="M143 0v983q0 136 96.5 232t231.5 96h205q135 0 231.5 -96t96.5 -232v-983h-199v492h-463v-492h-199zM336 1491v147h147v-147h-147zM342 655h463v340q0 64 -37.5 108t-91.5 44h-205q-54 0 -91.5 -44t-37.5 -108v-340zM664 1491v147h147v-147h-147z" />
<glyph unicode="&#xc5;" horiz-adv-x="1146" d="M143 0v983q0 95 51 173.5t134 119.5v199q0 67 48 115t116 48h163q68 0 116 -48t48 -115v-197q83 -41 134 -120t51 -175v-983h-199v492h-463v-492h-199zM342 655h463v340q0 64 -37.5 108t-91.5 44h-205q-54 0 -91.5 -44t-37.5 -108v-340zM465 1311h217v190h-217v-190z" />
<glyph unicode="&#xc6;" horiz-adv-x="1638" d="M143 0v983q0 135 96 231.5t232 96.5h1061v-164h-535v-369h539v-164h-539v-319q0 -56 38 -93.5t93 -37.5h404v-164h-404q-136 0 -231.5 95.5t-95.5 232.5v164h-461v-492h-197zM340 655h461v492h-330q-54 0 -92.5 -44t-38.5 -108v-340z" />
<glyph unicode="&#xc7;" horiz-adv-x="1167" d="M123 492v491q0 136 96.5 232t231.5 96h356q98 0 167.5 -70t69.5 -168v-172h-198v195q0 23 -14 37t-35 14h-346q-54 0 -91.5 -44t-37.5 -108v-524q0 -129 85 -218t207 -89h430v-164h-253v-246q0 -68 -48.5 -116t-115.5 -48h-164v148h180v262h-29q-133 0 -246 66 t-179 179.5t-66 246.5z" />
<glyph unicode="&#xc8;" horiz-adv-x="1003" d="M143 164v1147h734v-164h-535v-369h539v-164h-539v-450h535v-164h-570q-67 0 -115.5 48t-48.5 116zM289 1802h174l207 -327h-174z" />
<glyph unicode="&#xc9;" horiz-adv-x="1003" d="M143 164v1147h734v-164h-535v-369h539v-164h-539v-450h535v-164h-570q-67 0 -115.5 48t-48.5 116zM432 1475l207 327h174l-207 -327h-174z" />
<glyph unicode="&#xca;" horiz-adv-x="1003" d="M143 164v1147h734v-164h-535v-369h539v-164h-539v-450h535v-164h-570q-67 0 -115.5 48t-48.5 116zM250 1475l207 327h153l207 -327h-166l-119 188l-118 -188h-164z" />
<glyph unicode="&#xcb;" horiz-adv-x="1003" d="M143 164v1147h734v-164h-535v-369h539v-164h-539v-450h535v-164h-570q-67 0 -115.5 48t-48.5 116zM307 1491v147h148v-147h-148zM635 1491v147h147v-147h-147z" />
<glyph unicode="&#xcc;" horiz-adv-x="485" d="M-20 1802h163l217 -327h-174zM143 0v1311h199v-1311h-199z" />
<glyph unicode="&#xcd;" horiz-adv-x="485" d="M125 1475l207 327h174l-207 -327h-174zM143 0v1311h199v-1311h-199z" />
<glyph unicode="&#xce;" horiz-adv-x="485" d="M-41 1475l207 327h153l207 -327h-166l-118 188l-119 -188h-164zM143 0v1311h199v-1311h-199z" />
<glyph unicode="&#xcf;" horiz-adv-x="485" d="M4 1491v147h148v-147h-148zM143 0v1311h199v-1311h-199zM332 1491v147h147v-147h-147z" />
<glyph unicode="&#xd0;" horiz-adv-x="1243" d="M20 594v164h164v553h445q134 0 247 -66t178.5 -179t65.5 -247v-327q0 -100 -39 -190.5t-104.5 -157t-156.5 -105.5t-191 -39h-445v594h-164zM383 164h246q122 0 208.5 89.5t86.5 217.5v371q0 128 -86.5 216.5t-208.5 88.5h-246v-389h242v-164h-242v-430z" />
<glyph unicode="&#xd1;" horiz-adv-x="1187" d="M143 0v1311h113q55 0 87.5 -19t53.5 -59l449 -860v938h198v-1311h-112q-55 0 -87.5 19t-53.5 59l-449 862v-940h-199zM266 1638v148h252q62 0 105 -43t43 -105v-16h256v-147h-256q-60 0 -104 43t-44 104v16h-252z" />
<glyph unicode="&#xd2;" horiz-adv-x="1187" d="M123 328v655q0 135 96.5 231.5t231.5 96.5h286q136 0 232 -96.5t96 -231.5v-655q0 -136 -95.5 -232t-232.5 -96h-286q-135 0 -231.5 96t-96.5 232zM313 1802h174l207 -327h-174zM322 313q0 -64 37.5 -106.5t91.5 -42.5h286q55 0 93 42.5t38 106.5v682q0 64 -38.5 108 t-92.5 44h-286q-54 0 -91.5 -44t-37.5 -108v-682z" />
<glyph unicode="&#xd3;" horiz-adv-x="1187" d="M123 328v655q0 135 96.5 231.5t231.5 96.5h286q136 0 232 -96.5t96 -231.5v-655q0 -136 -95.5 -232t-232.5 -96h-286q-135 0 -231.5 96t-96.5 232zM322 313q0 -64 37.5 -106.5t91.5 -42.5h286q55 0 93 42.5t38 106.5v682q0 64 -38.5 108t-92.5 44h-286q-54 0 -91.5 -44 t-37.5 -108v-682zM494 1475l206 327h174l-206 -327h-174z" />
<glyph unicode="&#xd4;" horiz-adv-x="1187" d="M123 328v655q0 135 96.5 231.5t231.5 96.5h286q136 0 232 -96.5t96 -231.5v-655q0 -136 -95.5 -232t-232.5 -96h-286q-135 0 -231.5 96t-96.5 232zM311 1475l207 327h154l207 -327h-166l-119 188l-119 -188h-164zM322 313q0 -64 37.5 -106.5t91.5 -42.5h286q55 0 93 42.5 t38 106.5v682q1 63 -38 107.5t-93 44.5h-286q-54 0 -91.5 -44t-37.5 -108v-682z" />
<glyph unicode="&#xd5;" horiz-adv-x="1187" d="M123 328v655q0 135 96.5 231.5t231.5 96.5h286q136 0 232 -96.5t96 -231.5v-655q0 -136 -95.5 -232t-232.5 -96h-286q-135 0 -231.5 96t-96.5 232zM266 1638v148h252q62 0 105 -43t43 -105v-16h256v-147h-256q-60 0 -104 43t-44 104v16h-252zM322 313q0 -64 37.5 -106.5 t91.5 -42.5h286q55 0 93 42.5t38 106.5v682q0 64 -38.5 108t-92.5 44h-286q-54 0 -91.5 -44t-37.5 -108v-682z" />
<glyph unicode="&#xd6;" horiz-adv-x="1187" d="M123 328v655q0 135 96.5 231.5t231.5 96.5h286q136 0 232 -96.5t96 -231.5v-655q0 -136 -95.5 -232t-232.5 -96h-286q-135 0 -231.5 96t-96.5 232zM322 313q0 -64 37.5 -106.5t91.5 -42.5h286q55 0 93 42.5t38 106.5v682q0 64 -38.5 108t-92.5 44h-286q-54 0 -91.5 -44 t-37.5 -108v-682zM356 1491v147h148v-147h-148zM684 1491v147h147v-147h-147z" />
<glyph unicode="&#xd7;" horiz-adv-x="1044" d="M102 266l306 303l-306 305l117 115l303 -303l305 303l115 -115l-303 -305l303 -303l-115 -116l-305 305l-303 -305z" />
<glyph unicode="&#xd8;" horiz-adv-x="1187" d="M102 51l70 105q-49 77 -49 172v655q0 135 96.5 231.5t231.5 96.5h286q96 0 172 -51l54 79l122 -82l-69 -104q49 -77 49 -170v-655q0 -136 -96.5 -232t-231.5 -96h-286q-94 0 -175 49l-51 -80zM322 381l493 735q-40 31 -78 31h-286q-54 0 -91.5 -44t-37.5 -108v-614z M373 193q37 -29 78 -29h286q54 0 91.5 42.5t37.5 106.5v617z" />
<glyph unicode="&#xd9;" horiz-adv-x="1140" d="M143 328v983h199v-998q0 -64 37.5 -106.5t91.5 -42.5h199q54 0 91.5 42.5t37.5 106.5v998h198v-983q0 -136 -96 -232t-231 -96h-199q-135 0 -231.5 96t-96.5 232zM289 1802h174l207 -327h-174z" />
<glyph unicode="&#xda;" horiz-adv-x="1140" d="M143 328v983h199v-998q0 -64 37.5 -106.5t91.5 -42.5h199q54 0 91.5 42.5t37.5 106.5v998h198v-983q0 -136 -96 -232t-231 -96h-199q-135 0 -231.5 96t-96.5 232zM453 1475l206 327h175l-207 -327h-174z" />
<glyph unicode="&#xdb;" horiz-adv-x="1140" d="M143 328v983h199v-998q0 -64 37.5 -106.5t91.5 -42.5h199q54 0 91.5 42.5t37.5 106.5v998h198v-983q0 -136 -96 -232t-231 -96h-199q-135 0 -231.5 96t-96.5 232zM287 1475l207 327h153l207 -327h-166l-119 188l-118 -188h-164z" />
<glyph unicode="&#xdc;" horiz-adv-x="1140" d="M143 328v983h199v-998q0 -64 37.5 -106.5t91.5 -42.5h199q54 0 91.5 42.5t37.5 106.5v998h198v-983q0 -136 -96 -232t-231 -96h-199q-135 0 -231.5 96t-96.5 232zM332 1491v147h147v-147h-147zM659 1491v147h148v-147h-148z" />
<glyph unicode="&#xdd;" horiz-adv-x="1064" d="M102 860v451h199v-463q0 -64 37.5 -108t91.5 -44h205q54 0 91.5 44t37.5 108v463h199v-451q0 -138 -95.5 -233t-236.5 -95v-532h-199v532q-143 0 -236.5 95t-93.5 233zM412 1475l206 327h175l-207 -327h-174z" />
<glyph unicode="&#xde;" d="M143 0v1311h197v-246h336q136 0 232 -95.5t96 -232.5v-164q0 -135 -96 -231t-232 -96h-336v-246h-197zM340 410h336q54 0 92.5 43.5t38.5 107.5v191q0 64 -38 106.5t-93 42.5h-336v-491z" />
<glyph unicode="&#xdf;" horiz-adv-x="1167" d="M41 655v164h164v256q0 98 69.5 167t167.5 69h222q98 0 167.5 -69t69.5 -167v-215q75 -43 119.5 -119.5t44.5 -165.5v-247q0 -135 -96 -231.5t-232 -96.5h-164v164h164q56 0 100 44t44 107v273q0 63 -44 107t-100 44h-22v336q0 29 -21.5 50.5t-52.5 21.5h-176 q-31 0 -52.5 -21.5t-21.5 -50.5v-1075h-186v655h-164z" />
<glyph unicode="&#xe0;" horiz-adv-x="1126" d="M123 164v266q0 68 48.5 116t115.5 48h510v225h-629v164h651q67 0 115.5 -48.5t48.5 -115.5v-819h-696q-67 0 -115.5 48t-48.5 116zM287 1475h174l207 -328h-174zM309 164h488v266h-488v-266z" />
<glyph unicode="&#xe1;" horiz-adv-x="1126" d="M123 164v266q0 68 48.5 116t115.5 48h510v225h-629v164h651q67 0 115.5 -48.5t48.5 -115.5v-819h-696q-67 0 -115.5 48t-48.5 116zM309 164h488v266h-488v-266zM397 1147l207 328h174l-207 -328h-174z" />
<glyph unicode="&#xe2;" horiz-adv-x="1126" d="M123 164v266q0 68 48.5 116t115.5 48h510v225h-629v164h651q67 0 115.5 -48.5t48.5 -115.5v-819h-696q-67 0 -115.5 48t-48.5 116zM262 1147l207 328h154l206 -328h-165l-119 188l-119 -188h-164zM309 164h488v266h-488v-266z" />
<glyph unicode="&#xe3;" horiz-adv-x="1126" d="M123 164v266q0 68 48.5 116t115.5 48h510v225h-629v164h651q67 0 115.5 -48.5t48.5 -115.5v-819h-696q-67 0 -115.5 48t-48.5 116zM219 1327v148h252q61 0 104 -43t43 -105v-16h256v-148h-256q-60 0 -103.5 43.5t-43.5 104.5v16h-252zM309 164h488v266h-488v-266z" />
<glyph unicode="&#xe4;" horiz-adv-x="1126" d="M123 164v266q0 68 48.5 116t115.5 48h510v225h-629v164h651q67 0 115.5 -48.5t48.5 -115.5v-819h-696q-67 0 -115.5 48t-48.5 116zM303 1163v148h148v-148h-148zM309 164h488v266h-488v-266zM631 1163v148h147v-148h-147z" />
<glyph unicode="&#xe5;" horiz-adv-x="1126" d="M123 164v266q0 68 48.5 116t115.5 48h510v225h-629v164h651q67 0 115.5 -48.5t48.5 -115.5v-819h-696q-67 0 -115.5 48t-48.5 116zM295 1311v164q0 67 48 115t116 48h164q67 0 116.5 -47.5t57.5 -115.5l-11 -164q0 -68 -48 -116t-115 -48h-164q-67 0 -115.5 48.5 t-48.5 115.5zM309 164h488v266h-488v-266zM432 1284h217v217h-217v-217z" />
<glyph unicode="&#xe6;" horiz-adv-x="1781" d="M123 164v266q0 69 47.5 116.5t116.5 47.5h512v76q0 64 -37.5 106.5t-91.5 42.5h-504v164h504q135 0 227 -92q95 92 229 92h205q135 0 231.5 -96t96.5 -232v-225h-674v-115q0 -63 43 -107t98 -44h478v-164h-478q-132 0 -229 94q-94 -94 -227 -94h-383q-69 0 -116.5 48 t-47.5 116zM307 164h363q54 0 91.5 43.5t37.5 107.5v115h-492v-266zM985 594h488v76q0 64 -37.5 106.5t-92.5 42.5h-217q-56 0 -98.5 -43t-42.5 -106v-76z" />
<glyph unicode="&#xe7;" horiz-adv-x="1044" d="M123 328v327q0 135 102.5 231.5t239.5 96.5h293q68 0 116 -47.5t48 -116.5v-164h-187v164h-270q-57 0 -106.5 -43.5t-49.5 -105.5v-355q0 -62 49.5 -106.5t106.5 -44.5h444v-164h-241v-246q0 -68 -48 -116t-116 -48h-164v148h180v262h-55q-136 0 -239 97t-103 231z" />
<glyph unicode="&#xe8;" d="M123 328v327q0 136 96.5 232t231.5 96h204q135 0 231.5 -96t96.5 -232v-225h-674v-115q0 -63 43 -107t99 -44h477v-164h-477q-135 0 -231.5 96.5t-96.5 231.5zM307 1475h174l207 -328h-174zM309 594h488v76q0 63 -43 106t-99 43h-204q-56 0 -99 -43t-43 -106v-76z" />
<glyph unicode="&#xe9;" d="M123 328v327q0 136 96.5 232t231.5 96h204q135 0 231.5 -96t96.5 -232v-225h-674v-115q0 -63 43 -107t99 -44h477v-164h-477q-135 0 -231.5 96.5t-96.5 231.5zM309 594h488v76q0 63 -43 106t-99 43h-204q-56 0 -99 -43t-43 -106v-76zM424 1147l207 328h174l-207 -328 h-174z" />
<glyph unicode="&#xea;" d="M123 328v327q0 136 96.5 232t231.5 96h204q135 0 231.5 -96t96.5 -232v-225h-674v-115q0 -63 43 -107t99 -44h477v-164h-477q-135 0 -231.5 96.5t-96.5 231.5zM283 1147l206 328h154l207 -328h-166l-119 188l-119 -188h-163zM309 594h488v76q0 63 -43 106t-99 43h-204 q-56 0 -99 -43t-43 -106v-76z" />
<glyph unicode="&#xeb;" d="M123 328v327q0 136 96.5 232t231.5 96h204q135 0 231.5 -96t96.5 -232v-225h-674v-115q0 -63 43 -107t99 -44h477v-164h-477q-135 0 -231.5 96.5t-96.5 231.5zM309 594h488v76q0 63 -43 106t-99 43h-204q-56 0 -99 -43t-43 -106v-76zM319 1163v148h148v-148h-148z M647 1163v148h148v-148h-148z" />
<glyph unicode="&#xec;" horiz-adv-x="471" d="M-20 1475h163l217 -328h-174zM143 0v983h185v-983h-185z" />
<glyph unicode="&#xed;" horiz-adv-x="471" d="M111 1147l206 328h175l-207 -328h-174zM143 0v983h185v-983h-185z" />
<glyph unicode="&#xee;" horiz-adv-x="471" d="M-49 1147l207 328h153l207 -328h-166l-119 188l-118 -188h-164zM143 0v983h185v-983h-185z" />
<glyph unicode="&#xef;" horiz-adv-x="471" d="M-2 1163v148h147v-148h-147zM143 0v983h185v-983h-185zM326 1163v148h147v-148h-147z" />
<glyph unicode="&#xf0;" horiz-adv-x="1161" d="M123 328v327q0 135 96.5 231.5t231.5 96.5h340v164h-160v164h160v164h186v-164h164v-164h-164v-819q0 -135 -96.5 -231.5t-231.5 -96.5h-198q-135 0 -231.5 96.5t-96.5 231.5zM309 315q0 -63 43 -107t99 -44h198q56 0 99 44t43 107v504h-340q-56 0 -99 -44t-43 -107v-353 z" />
<glyph unicode="&#xf1;" d="M143 0v983h492q135 0 231.5 -96t96.5 -232v-655h-187v668q0 63 -43 107t-98 44h-307v-819h-185zM186 1327v148h252q62 0 105 -43.5t43 -104.5v-16h256v-148h-256q-60 0 -104 43.5t-44 104.5v16h-252z" />
<glyph unicode="&#xf2;" d="M123 328v327q0 136 96.5 232t231.5 96h204q135 0 231.5 -96t96.5 -232v-327q0 -135 -96.5 -231.5t-231.5 -96.5h-204q-135 0 -231.5 96.5t-96.5 231.5zM289 1475h174l207 -328h-174zM309 315q0 -63 43 -107t99 -44h204q56 0 99 44t43 107v353q0 63 -43 107t-99 44h-204 q-56 0 -99 -44t-43 -107v-353z" />
<glyph unicode="&#xf3;" d="M123 328v327q0 136 96.5 232t231.5 96h204q135 0 231.5 -96t96.5 -232v-327q0 -135 -96.5 -231.5t-231.5 -96.5h-204q-135 0 -231.5 96.5t-96.5 231.5zM309 315q0 -63 43 -107t99 -44h204q56 0 99 44t43 107v353q0 63 -43 107t-99 44h-204q-56 0 -99 -44t-43 -107v-353z M459 1147l207 328h174l-207 -328h-174z" />
<glyph unicode="&#xf4;" d="M123 328v327q0 136 96.5 232t231.5 96h204q135 0 231.5 -96t96.5 -232v-327q0 -135 -96.5 -231.5t-231.5 -96.5h-204q-135 0 -231.5 96.5t-96.5 231.5zM268 1147l207 328h154l207 -328h-166l-119 188l-119 -188h-164zM309 315q0 -63 43 -107t99 -44h204q56 0 99 44 t43 107v353q0 63 -43 107t-99 44h-204q-56 0 -99 -44t-43 -107v-353z" />
<glyph unicode="&#xf5;" d="M123 328v327q0 136 96.5 232t231.5 96h204q135 0 231.5 -96t96.5 -232v-327q0 -135 -96.5 -231.5t-231.5 -96.5h-204q-135 0 -231.5 96.5t-96.5 231.5zM223 1327v148h252q61 0 104.5 -43.5t43.5 -104.5v-16h256v-148h-256q-60 0 -104 43.5t-44 104.5v16h-252zM309 315 q0 -63 43 -107t99 -44h204q56 0 99 44t43 107v353q0 63 -43 107t-99 44h-204q-56 0 -99 -44t-43 -107v-353z" />
<glyph unicode="&#xf6;" d="M123 328v327q0 136 96.5 232t231.5 96h204q135 0 231.5 -96t96.5 -232v-327q0 -135 -96.5 -231.5t-231.5 -96.5h-204q-135 0 -231.5 96.5t-96.5 231.5zM309 315q0 -63 43 -107t99 -44h204q56 0 99 44t43 107v353q-1 63 -44 107t-98 44h-204q-56 0 -99 -44t-43 -107v-353z M315 1163v148h148v-148h-148zM643 1163v148h148v-148h-148z" />
<glyph unicode="&#xf7;" d="M143 492v163h820v-163h-820zM455 164v164h196v-164h-196zM455 819v164h196v-164h-196z" />
<glyph unicode="&#xf8;" d="M123 328v327q0 136 96.5 232t231.5 96h204q84 0 154 -37l51 68l117 -90l-57 -74q63 -89 63 -195v-327q0 -135 -96.5 -231.5t-231.5 -96.5h-204q-84 0 -154 39l-51 -68l-119 90l57 76q-61 83 -61 191zM309 299l396 510q-20 10 -50 10h-204q-56 0 -99 -44t-43 -107v-369z M401 176q21 -12 50 -12h204q56 0 99 44t43 107v353q0 12 -2 18z" />
<glyph unicode="&#xf9;" d="M143 328v655h187v-668q0 -63 43 -107t98 -44h164q55 0 98 44t43 107v668h187v-655q0 -136 -96.5 -232t-231.5 -96h-164q-135 0 -231.5 96t-96.5 232zM287 1475h174l207 -328h-174z" />
<glyph unicode="&#xfa;" d="M143 328v655h187v-668q0 -63 43 -107t98 -44h164q55 0 98 44t43 107v668h187v-655q0 -136 -96.5 -232t-231.5 -96h-164q-135 0 -231.5 96t-96.5 232zM463 1147l207 328h174l-207 -328h-174z" />
<glyph unicode="&#xfb;" d="M143 328v655h187v-668q0 -63 43 -107t98 -44h164q55 0 98 44t43 107v668h187v-655q0 -136 -96.5 -232t-231.5 -96h-164q-135 0 -231.5 96t-96.5 232zM270 1147l207 328h154l207 -328h-166l-119 188l-119 -188h-164z" />
<glyph unicode="&#xfc;" d="M143 328v655h187v-668q0 -63 43 -107t98 -44h164q55 0 98 44t43 107v668h187v-655q0 -136 -96.5 -232t-231.5 -96h-164q-135 0 -231.5 96t-96.5 232zM315 1163v148h148v-148h-148zM643 1163v148h148v-148h-148z" />
<glyph unicode="&#xfd;" d="M143 328v655h185v-668q0 -63 43.5 -107t99.5 -44h305v819h187v-1229q0 -68 -48.5 -116t-115.5 -48h-152v164h129v246h-305q-136 0 -232 96.5t-96 231.5zM461 1147l207 328h174l-207 -328h-174z" />
<glyph unicode="&#xfe;" horiz-adv-x="1126" d="M143 -410v1885h187v-492h346q135 0 231.5 -96t96.5 -232v-327q0 -135 -96.5 -231.5t-231.5 -96.5h-346v-410h-187zM330 164h346q55 0 98 44t43 107v355q0 63 -42.5 106t-98.5 43h-346v-655z" />
<glyph unicode="&#xff;" d="M143 328v655h185v-668q0 -63 43.5 -107t99.5 -44h305v819h187v-1229q0 -68 -48.5 -116t-115.5 -48h-152v164h129v246h-305q-136 0 -232 96.5t-96 231.5zM315 1163v148h148v-148h-148zM643 1163v148h148v-148h-148z" />
<glyph unicode="&#x152;" horiz-adv-x="1720" d="M123 328v655q0 136 96.5 232t231.5 96h1163v-164h-543v-369h547v-164h-547v-319q0 -55 38.5 -93t92.5 -38h412v-164h-412q-135 0 -229 94q-94 -94 -230 -94h-292q-135 0 -231.5 96.5t-96.5 231.5zM322 315q0 -64 37.5 -107.5t91.5 -43.5h292q56 0 93.5 43.5t37.5 107.5 v832h-423q-54 0 -91.5 -44t-37.5 -108v-680z" />
<glyph unicode="&#x153;" horiz-adv-x="1781" d="M123 328v327q0 136 96.5 232t231.5 96h211q134 0 229 -92q92 92 227 92h213q135 0 231.5 -96t96.5 -232v-225h-670v-115q0 -64 37.5 -107.5t91.5 -43.5h486v-164h-486q-133 0 -227 94q-97 -94 -229 -94h-211q-135 0 -231.5 96.5t-96.5 231.5zM309 315q0 -63 43 -107 t99 -44h211q55 0 98 44t43 107v355q0 63 -42.5 106t-98.5 43h-211q-56 0 -99 -43t-43 -106v-355zM989 594h484v76q0 63 -43 106t-99 43h-213q-54 0 -91.5 -42.5t-37.5 -106.5v-76z" />
<glyph unicode="&#x178;" horiz-adv-x="1064" d="M102 860v451h199v-463q0 -64 37.5 -108t91.5 -44h205q54 0 91.5 44t37.5 108v463h199v-451q0 -138 -95.5 -233t-236.5 -95v-532h-199v532q-143 0 -236.5 95t-93.5 233zM295 1491v147h147v-147h-147zM623 1491v147h147v-147h-147z" />
<glyph unicode="&#x2c6;" horiz-adv-x="778" d="M104 1147l207 328h154l207 -328h-166l-119 188l-119 -188h-164z" />
<glyph unicode="&#x2dc;" horiz-adv-x="778" d="M61 1327v148h252q61 0 104.5 -43.5t43.5 -104.5v-16h256v-148h-256q-60 0 -104 43.5t-44 104.5v16h-252z" />
<glyph unicode="&#x2000;" horiz-adv-x="901" />
<glyph unicode="&#x2001;" horiz-adv-x="1802" />
<glyph unicode="&#x2002;" horiz-adv-x="901" />
<glyph unicode="&#x2003;" horiz-adv-x="1802" />
<glyph unicode="&#x2004;" horiz-adv-x="600" />
<glyph unicode="&#x2005;" horiz-adv-x="450" />
<glyph unicode="&#x2006;" horiz-adv-x="300" />
<glyph unicode="&#x2007;" horiz-adv-x="300" />
<glyph unicode="&#x2008;" horiz-adv-x="225" />
<glyph unicode="&#x2009;" horiz-adv-x="360" />
<glyph unicode="&#x200a;" horiz-adv-x="100" />
<glyph unicode="&#x2010;" horiz-adv-x="696" d="M102 492v163h492v-163h-492z" />
<glyph unicode="&#x2011;" horiz-adv-x="696" d="M102 492v163h492v-163h-492z" />
<glyph unicode="&#x2012;" horiz-adv-x="696" d="M102 492v163h492v-163h-492z" />
<glyph unicode="&#x2013;" d="M102 492v163h902v-163h-902z" />
<glyph unicode="&#x2014;" horiz-adv-x="1638" d="M102 492v163h1434v-163h-1434z" />
<glyph unicode="&#x2018;" horiz-adv-x="532" d="M61 1475h193l156 -492h-195z" />
<glyph unicode="&#x2019;" horiz-adv-x="532" d="M123 983l156 492h192l-154 -492h-194z" />
<glyph unicode="&#x201a;" horiz-adv-x="552" d="M33 -410l207 656h196l-205 -656h-198z" />
<glyph unicode="&#x201c;" horiz-adv-x="942" d="M61 1475h193l156 -492h-195zM471 1475h193l155 -492h-194z" />
<glyph unicode="&#x201d;" horiz-adv-x="942" d="M123 983l156 492h190l-154 -492h-192zM535 983l155 492h191l-154 -492h-192z" />
<glyph unicode="&#x201e;" horiz-adv-x="962" d="M33 -410l207 656h196l-205 -656h-198zM442 -410l207 656h197l-205 -656h-199z" />
<glyph unicode="&#x2022;" horiz-adv-x="614" d="M143 492v327h328v-327h-328z" />
<glyph unicode="&#x2026;" horiz-adv-x="1392" d="M158 0v246h196v-246h-196zM598 0v246h197v-246h-197zM1038 0v246h197v-246h-197z" />
<glyph unicode="&#x202f;" horiz-adv-x="360" />
<glyph unicode="&#x2039;" horiz-adv-x="716" d="M6 606l492 492l116 -115l-374 -377l374 -375l-116 -116z" />
<glyph unicode="&#x203a;" horiz-adv-x="716" d="M102 231l375 375l-375 377l117 115l492 -492l-492 -491z" />
<glyph unicode="&#x205f;" horiz-adv-x="450" />
<glyph unicode="&#x20ac;" horiz-adv-x="1146" d="M102 573v164h244v164h-244v164h254q28 107 116 176.5t202 69.5h330v-164h-330q-56 0 -100 -44.5t-44 -107.5v-94h474v-164h-474v-96q0 -63 44 -106t100 -43h330v-164h-330q-114 0 -202 69t-116 176h-254z" />
<glyph unicode="&#x2122;" horiz-adv-x="1613" d="M102 1202v109h459v-109h-164v-465h-131v465h-164zM725 737v574h569q91 0 154 -63t63 -154v-357h-131v365q0 42 -25 71t-61 29h-110v-465h-131v465h-197v-465h-131z" />
<glyph unicode="&#xe000;" horiz-adv-x="983" d="M0 0v983h983v-983h-983z" />
</font>
</defs>
</svg>
